<svg aria-hidden="true" style="position: absolute; width: 0; height: 0; overflow: hidden;" version="1.1" xmlns="http://www.w3.org/2000/svg" xmlns:xlink="http://www.w3.org/1999/xlink">
<defs>
<symbol id="icon-facebook-1" viewBox="0 0 32 32">
<path fill="#f4f4fd" style="fill: var(--color1, #f4f4fd)" d="M21.329 5.313h2.921v-5.088c-0.504-0.069-2.237-0.225-4.256-0.225-4.212 0-7.097 2.649-7.097 7.519v4.481h-4.648v5.688h4.648v14.312h5.699v-14.311h4.46l0.708-5.688h-5.169v-3.919c0.001-1.644 0.444-2.769 2.735-2.769z"></path>
</symbol>
<symbol id="icon-instagram-2" viewBox="0 0 32 32">
<path fill="#f4f4fd" style="fill: var(--color1, #f4f4fd)" d="M31.969 9.408c-0.075-1.7-0.35-2.869-0.744-3.882-0.406-1.075-1.031-2.038-1.85-2.838-0.8-0.813-1.769-1.444-2.832-1.844-1.019-0.394-2.182-0.669-3.882-0.744-1.713-0.081-2.257-0.1-6.601-0.1s-4.888 0.019-6.595 0.094c-1.7 0.075-2.869 0.35-3.882 0.744-1.075 0.406-2.038 1.031-2.838 1.85-0.813 0.8-1.444 1.769-1.844 2.832-0.394 1.019-0.669 2.182-0.744 3.882-0.081 1.713-0.1 2.257-0.1 6.601s0.019 4.888 0.094 6.595c0.075 1.7 0.35 2.869 0.744 3.882 0.406 1.075 1.038 2.038 1.85 2.838 0.8 0.813 1.769 1.444 2.832 1.844 1.019 0.394 2.182 0.669 3.882 0.744 1.706 0.075 2.25 0.094 6.595 0.094s4.888-0.019 6.595-0.094c1.7-0.075 2.869-0.35 3.882-0.744 2.151-0.831 3.851-2.532 4.682-4.682 0.394-1.019 0.669-2.182 0.744-3.882 0.075-1.707 0.094-2.25 0.094-6.595s-0.006-4.888-0.081-6.595zM29.087 22.473c-0.069 1.563-0.331 2.407-0.55 2.969-0.538 1.394-1.644 2.5-3.038 3.038-0.563 0.219-1.413 0.481-2.969 0.55-1.688 0.075-2.194 0.094-6.464 0.094s-4.782-0.019-6.464-0.094c-1.563-0.069-2.407-0.331-2.969-0.55-0.694-0.256-1.325-0.663-1.838-1.194-0.531-0.519-0.938-1.144-1.194-1.838-0.219-0.563-0.481-1.413-0.55-2.969-0.075-1.688-0.094-2.194-0.094-6.464s0.019-4.782 0.094-6.464c0.069-1.563 0.331-2.407 0.55-2.969 0.256-0.694 0.663-1.325 1.2-1.838 0.519-0.531 1.144-0.938 1.838-1.194 0.563-0.219 1.413-0.481 2.969-0.55 1.688-0.075 2.194-0.094 6.464-0.094 4.276 0 4.782 0.019 6.464 0.094 1.563 0.069 2.407 0.331 2.969 0.55 0.694 0.256 1.325 0.662 1.838 1.194 0.531 0.519 0.938 1.144 1.194 1.838 0.219 0.563 0.481 1.413 0.55 2.969 0.075 1.688 0.094 2.194 0.094 6.464s-0.019 4.77-0.094 6.458z"></path>
<path fill="#f4f4fd" style="fill: var(--color1, #f4f4fd)" d="M16.059 7.783c-4.538 0-8.22 3.682-8.22 8.22s3.682 8.22 8.22 8.22c4.538 0 8.22-3.682 8.22-8.22s-3.682-8.22-8.22-8.22zM16.059 21.335c-2.944 0-5.332-2.388-5.332-5.332s2.388-5.332 5.332-5.332c2.944 0 5.332 2.388 5.332 5.332s-2.388 5.332-5.332 5.332z"></path>
<path fill="#f4f4fd" style="fill: var(--color1, #f4f4fd)" d="M26.524 7.458c0 1.060-0.859 1.919-1.919 1.919s-1.919-0.859-1.919-1.919c0-1.060 0.859-1.919 1.919-1.919s1.919 0.859 1.919 1.919z"></path>
</symbol>
<symbol id="icon-linkedin-1" viewBox="0 0 32 32">
<path fill="#f4f4fd" style="fill: var(--color1, #f4f4fd)" d="M31.992 32v-0.001h0.008v-11.736c0-5.741-1.236-10.164-7.948-10.164-3.227 0-5.392 1.771-6.276 3.449h-0.093v-2.913h-6.364v21.364h6.627v-10.579c0-2.785 0.528-5.479 3.977-5.479 3.399 0 3.449 3.179 3.449 5.657v10.401h6.62z"></path>
<path fill="#f4f4fd" style="fill: var(--color1, #f4f4fd)" d="M0.528 10.636h6.635v21.364h-6.635v-21.364z"></path>
<path fill="#f4f4fd" style="fill: var(--color1, #f4f4fd)" d="M3.843-0c-2.121 0-3.843 1.721-3.843 3.843s1.721 3.879 3.843 3.879c2.121 0 3.843-1.757 3.843-3.879-0.001-2.121-1.723-3.843-3.843-3.843v0z"></path>
</symbol>
<symbol id="icon-twitter-1" viewBox="0 0 32 32">
<path fill="#f4f4fd" style="fill: var(--color1, #f4f4fd)" d="M32 6.078c-1.19 0.522-2.458 0.868-3.78 1.036 1.36-0.812 2.398-2.088 2.886-3.626-1.268 0.756-2.668 1.29-4.16 1.588-1.204-1.282-2.92-2.076-4.792-2.076-3.632 0-6.556 2.948-6.556 6.562 0 0.52 0.044 1.020 0.152 1.496-5.454-0.266-10.28-2.88-13.522-6.862-0.566 0.982-0.898 2.106-0.898 3.316 0 2.272 1.17 4.286 2.914 5.452-1.054-0.020-2.088-0.326-2.964-0.808 0 0.020 0 0.046 0 0.072 0 3.188 2.274 5.836 5.256 6.446-0.534 0.146-1.116 0.216-1.72 0.216-0.42 0-0.844-0.024-1.242-0.112 0.85 2.598 3.262 4.508 6.13 4.57-2.232 1.746-5.066 2.798-8.134 2.798-0.538 0-1.054-0.024-1.57-0.090 2.906 1.874 6.35 2.944 10.064 2.944 12.072 0 18.672-10 18.672-18.668 0-0.29-0.010-0.57-0.024-0.848 1.302-0.924 2.396-2.078 3.288-3.406z"></path>
</symbol>
<symbol id="icon-instagram" viewBox="0 0 24 28">
<path d="M16 14c0-2.203-1.797-4-4-4s-4 1.797-4 4 1.797 4 4 4 4-1.797 4-4zM18.156 14c0 3.406-2.75 6.156-6.156 6.156s-6.156-2.75-6.156-6.156 2.75-6.156 6.156-6.156 6.156 2.75 6.156 6.156zM19.844 7.594c0 0.797-0.641 1.437-1.437 1.437s-1.437-0.641-1.437-1.437 0.641-1.437 1.437-1.437 1.437 0.641 1.437 1.437zM12 4.156c-1.75 0-5.5-0.141-7.078 0.484-0.547 0.219-0.953 0.484-1.375 0.906s-0.688 0.828-0.906 1.375c-0.625 1.578-0.484 5.328-0.484 7.078s-0.141 5.5 0.484 7.078c0.219 0.547 0.484 0.953 0.906 1.375s0.828 0.688 1.375 0.906c1.578 0.625 5.328 0.484 7.078 0.484s5.5 0.141 7.078-0.484c0.547-0.219 0.953-0.484 1.375-0.906s0.688-0.828 0.906-1.375c0.625-1.578 0.484-5.328 0.484-7.078s0.141-5.5-0.484-7.078c-0.219-0.547-0.484-0.953-0.906-1.375s-0.828-0.688-1.375-0.906c-1.578-0.625-5.328-0.484-7.078-0.484zM24 14c0 1.656 0.016 3.297-0.078 4.953-0.094 1.922-0.531 3.625-1.937 5.031s-3.109 1.844-5.031 1.937c-1.656 0.094-3.297 0.078-4.953 0.078s-3.297 0.016-4.953-0.078c-1.922-0.094-3.625-0.531-5.031-1.937s-1.844-3.109-1.937-5.031c-0.094-1.656-0.078-3.297-0.078-4.953s-0.016-3.297 0.078-4.953c0.094-1.922 0.531-3.625 1.937-5.031s3.109-1.844 5.031-1.937c1.656-0.094 3.297-0.078 4.953-0.078s3.297-0.016 4.953 0.078c1.922 0.094 3.625 0.531 5.031 1.937s1.844 3.109 1.937 5.031c0.094 1.656 0.078 3.297 0.078 4.953z"></path>
</symbol>
<symbol id="icon-instagram1" viewBox="0 0 24 24">
<path d="M7 1c-1.657 0-3.158 0.673-4.243 1.757s-1.757 2.586-1.757 4.243v10c0 1.657 0.673 3.158 1.757 4.243s2.586 1.757 4.243 1.757h10c1.657 0 3.158-0.673 4.243-1.757s1.757-2.586 1.757-4.243v-10c0-1.657-0.673-3.158-1.757-4.243s-2.586-1.757-4.243-1.757zM7 3h10c1.105 0 2.103 0.447 2.828 1.172s1.172 1.723 1.172 2.828v10c0 1.105-0.447 2.103-1.172 2.828s-1.723 1.172-2.828 1.172h-10c-1.105 0-2.103-0.447-2.828-1.172s-1.172-1.723-1.172-2.828v-10c0-1.105 0.447-2.103 1.172-2.828s1.723-1.172 2.828-1.172zM16.989 11.223c-0.15-0.972-0.571-1.857-1.194-2.567-0.754-0.861-1.804-1.465-3.009-1.644-0.464-0.074-0.97-0.077-1.477-0.002-1.366 0.202-2.521 0.941-3.282 1.967s-1.133 2.347-0.93 3.712 0.941 2.521 1.967 3.282 2.347 1.133 3.712 0.93 2.521-0.941 3.282-1.967 1.133-2.347 0.93-3.712zM15.011 11.517c0.122 0.82-0.1 1.609-0.558 2.227s-1.15 1.059-1.969 1.18-1.609-0.1-2.227-0.558-1.059-1.15-1.18-1.969 0.1-1.609 0.558-2.227 1.15-1.059 1.969-1.18c0.313-0.046 0.615-0.042 0.87-0.002 0.74 0.11 1.366 0.47 1.818 0.986 0.375 0.428 0.63 0.963 0.72 1.543zM17.5 7.5c0.552 0 1-0.448 1-1s-0.448-1-1-1-1 0.448-1 1 0.448 1 1 1z"></path>
</symbol>
</defs>
</svg>
